<svg width="32" height="32" viewBox="0 0 32 32" xmlns="http://www.w3.org/2000/svg"><path d="M19.5 14C20.3284 14 21 13.1045 21 12C21 10.8953 20.3284 10 19.5 10C18.6716 10 18 10.8953 18 12C18 13.1045 18.6716 14 19.5 14Z"/><path d="M12.5 14C13.3284 14 14 13.1045 14 12C14 10.8955 13.3284 10 12.5 10C11.6716 10 11 10.8955 11 12C11 13.1045 11.6716 14 12.5 14Z"/><path fill-rule="evenodd" clip-rule="evenodd" d="M26 19.1111V12.7222C26 7.35278 21.5228 3 16 3C10.4772 3 6 7.35278 6 12.7222V19.1111C6 22.2226 6 23.7783 6.62283 24.9667C7.17064 26.012 8.04484 26.8619 9.12006 27.3946C10.3424 28 11.9426 28 15.1429 28H16.8572C20.0574 28 21.6575 28 22.8799 27.3946C23.9551 26.8619 24.8293 26.012 25.3772 24.9667C26 23.7783 26 22.2226 26 19.1111ZM8.85665 12.7222C8.85665 8.88697 12.0546 5.77779 15.9995 5.77779C19.9444 5.77779 23.1424 8.88697 23.1424 12.7222V14.2924C23.1424 15.8817 22.2037 17.3368 20.6182 17.7238C19.411 18.0184 17.8286 18.2778 15.9995 18.2778C14.1704 18.2778 12.5881 18.0184 11.3809 17.7238C9.79534 17.3368 8.85665 15.8817 8.85665 14.2924V12.7222Z"/><path d="M29.5 14C30.3284 14 31 14.7102 31 15.5862V22.4138C31 23.2898 30.3284 24 29.5 24C28.6716 24 28 23.2898 28 22.4138V15.5862C28 14.7102 28.6716 14 29.5 14Z"/><path d="M4 15.5862C4 14.7102 3.32843 14 2.5 14C1.67157 14 1 14.7102 1 15.5862V22.4138C1 23.2898 1.67157 24 2.5 24C3.32843 24 4 23.2898 4 22.4138V15.5862Z"/></svg>
