<svg width="32" height="32" viewBox="0 0 32 32" xmlns="http://www.w3.org/2000/svg"><path d="M20.7488 6.16315C18.6592 4.21215 15.7357 3 12.5 3C6.14873 3 1 7.67044 1 13.4316C1 16.7175 2.53821 19.4108 5.15566 21.3228C5.49038 21.5673 5.79869 22.926 5.05258 24.0673C4.74748 24.534 4.4116 24.897 4.15303 25.1765C3.77927 25.5805 3.56703 25.8099 3.84277 25.9252C4.13036 26.0456 5.82973 26.1052 7.05626 25.4188C8.01625 24.8817 8.59774 24.3457 8.98926 23.9848C9.31304 23.6864 9.50697 23.5077 9.6778 23.5468C10.2902 23.6869 10.9222 23.7826 11.5693 23.8295C11.5781 23.8301 11.587 23.8308 11.5958 23.8314C11.8942 23.8525 12.1957 23.8632 12.5 23.8632C18.8512 23.8632 24 19.1928 24 13.4316C24 10.6055 22.761 8.04181 20.7488 6.16315Z"/><path d="M31 16.3953C31 12.3081 28.4477 8.76841 24.727 7.04683C24.2744 6.83736 23.8665 7.37292 24.1037 7.81514C24.9754 9.4411 25.4696 11.2842 25.4696 13.2568C25.4696 19.1199 21.1033 23.8387 15.4363 25.1142C14.9386 25.2263 14.8284 25.9065 15.3065 26.0857C16.6337 26.5829 18.086 26.857 19.6078 26.857C20.5724 26.857 21.5091 26.747 22.4036 26.5397C22.5728 26.5005 22.7649 26.6797 23.0857 26.979C23.4735 27.3409 24.0495 27.8784 25.0006 28.4171C26.2156 29.1055 27.899 29.0457 28.1839 28.925C28.4571 28.8093 28.2468 28.5793 27.8766 28.1741C27.6204 27.8938 27.2877 27.5297 26.9854 27.0617C26.2464 25.9172 26.5517 24.5545 26.8833 24.3093C29.4762 22.3918 31 19.6907 31 16.3953Z"/></svg>