<svg width="32" height="32" viewBox="0 0 32 32" fill="none" xmlns="http://www.w3.org/2000/svg">
<path d="M10.6684 14.734C9.2538 14.7339 7.89716 14.1684 6.89694 13.1618C5.89672 12.1552 5.33486 10.7901 5.33496 9.36664C5.33506 7.94322 5.89711 6.57814 6.89747 5.5717C7.89783 4.56526 9.25455 3.9999 10.6692 4C11.3696 4.00005 12.0632 4.13892 12.7103 4.40868C13.3574 4.67845 13.9454 5.07382 14.4406 5.57223C14.9359 6.07064 15.3288 6.66232 15.5968 7.3135C15.8648 7.96467 16.0027 8.66259 16.0026 9.3674C16.0026 10.0722 15.8646 10.7701 15.5965 11.4212C15.3284 12.0724 14.9354 12.664 14.4401 13.1623C13.9448 13.6607 13.3568 14.056 12.7096 14.3256C12.0625 14.5953 11.3689 14.7341 10.6684 14.734ZM0.00225216 23.9701C0.00225216 22.9406 0.256745 21.9117 0.982687 21.1858C2.34674 19.8231 5.27828 17.8002 10.6677 17.8002C16.0571 17.8002 18.9893 19.8231 20.3526 21.1858C21.0786 21.911 21.3331 22.9398 21.3331 23.9701C21.3329 24.7701 21.0184 25.5374 20.4581 26.1049C19.8978 26.6724 19.1372 26.9939 18.3422 26.9992H3.01112C2.21265 26.9992 1.44688 26.6801 0.882202 26.1121C0.317529 25.544 0.00019907 24.7736 0 23.9701H0.00225216ZM22.9749 26.9992C23.5565 26.0975 23.8653 25.0452 23.8637 23.9701C23.8637 22.581 23.5259 20.7688 22.1356 19.3804L22.1041 19.3494C22.3488 19.3396 22.5995 19.3343 22.8578 19.3343C27.4709 19.3343 29.9843 21.0158 31.1547 22.1512C31.7778 22.7555 32 23.6257 32 24.4967C32 25.1606 31.7379 25.7973 31.2713 26.2668C30.8048 26.7363 30.172 27 29.5121 27L22.9749 26.9992ZM22.8578 16.2675C21.6455 16.2675 20.4828 15.7829 19.6255 14.9203C18.7683 14.0577 18.2867 12.8878 18.2867 11.6679C18.2867 10.4481 18.7683 9.27814 19.6255 8.41556C20.4828 7.55297 21.6455 7.06838 22.8578 7.06838C24.0701 7.06838 25.2328 7.55297 26.09 8.41556C26.9473 9.27814 27.4289 10.4481 27.4289 11.6679C27.4289 12.8878 26.9473 14.0577 26.09 14.9203C25.2328 15.7829 24.0701 16.2675 22.8578 16.2675Z" fill="black"/>
</svg>
