<svg width="32" height="32" viewBox="0 0 32 32" fill="none" xmlns="http://www.w3.org/2000/svg">
<path d="M16 15.2347C16.8535 15.2347 17.6987 15.0765 18.4873 14.769C19.2758 14.4616 19.9923 14.011 20.5959 13.443C21.1994 12.8749 21.6782 12.2006 22.0048 11.4584C22.3314 10.7162 22.4996 9.92069 22.4996 9.11735C22.4996 8.31401 22.3314 7.51853 22.0048 6.77634C21.6782 6.03415 21.1994 5.35978 20.5959 4.79173C19.9923 4.22368 19.2758 3.77308 18.4873 3.46566C17.6987 3.15823 16.8535 3 16 3C14.2762 3 12.623 3.6445 11.4041 4.79173C10.1852 5.93896 9.50045 7.49493 9.50045 9.11735C9.50045 10.7398 10.1852 12.2957 11.4041 13.443C12.623 14.5902 14.2762 15.2347 16 15.2347ZM3.00089 25.0034C3.00089 26.0633 3.44827 27.0799 4.24462 27.8294C5.04096 28.5789 6.12104 29 7.24724 29H24.7536C25.8799 29 26.9599 28.5789 27.7563 27.8294C28.5526 27.0799 29 26.0633 29 25.0034C29 24.1132 28.7684 23.2288 28.137 22.5666C26.6462 21.0025 23.0455 18.2942 16 18.2942C8.95451 18.2942 5.35473 21.0034 3.86299 22.5666C3.23155 23.2288 3.00089 24.1132 3.00089 25.0034Z" fill="black"/>
</svg>
